<svg xmlns="http://www.w3.org/2000/svg" viewBox="0 0 24 24">
  <g fill="none" stroke="#000" stroke-width="1.45" stroke-linecap="round" stroke-linejoin="round">
    <path d="M3.5 17.5V5.2C3.5 3.9 4.5 3 5.8 3h8.1c3.6 0 6.6 2.9 6.6 6.5v3.1"/>
    <path d="M3.5 7.1 8 3m-4.5 8.5L8 7.1 12.2 3M3.5 16l4.5-4.5L3.5 7.1M8 7.1l4.2 4.4L8 16m0-8.9 4.2-4.1 4.2 4.1-4.2 4.4M16.4 7.1l4.1 2.4-4.1 3.1-4.2-1.1"/>
    <rect x="13.1" y="13" width="8" height="8" rx="1.1"/>
    <path d="m15.1 16 2 2m0-2-2 2m3.2 1h1.2"/>
  </g>
  <g fill="#000">
    <circle cx="3.5" cy="5.2" r="1"/>
    <circle cx="3.5" cy="11.5" r="1"/>
    <circle cx="3.5" cy="17.5" r="1"/>
    <circle cx="8" cy="3" r="1"/>
    <circle cx="8" cy="7.1" r="1"/>
    <circle cx="8" cy="16" r="1"/>
    <circle cx="12.2" cy="3" r="1"/>
    <circle cx="12.2" cy="11.5" r="1"/>
    <circle cx="16.4" cy="7.1" r="1"/>
    <circle cx="20.5" cy="9.5" r="1"/>
  </g>
</svg>
