<svg xmlns="http://www.w3.org/2000/svg" viewBox="0 0 32 32">
  <g stroke="#455a64" stroke-width="1.5" stroke-linejoin="round" stroke-linecap="round">
    <polygon points="16,6 26,11 16,16 6,11" fill="#eceff1" />
    <polygon points="6,11 16,16 16,26 6,21" fill="#cfd8dc" />
    <polygon points="16,16 26,11 26,21 16,26" fill="#b0bec5" />
    
    <line x1="11" y1="8.5" x2="21" y2="13.5" stroke-width="1" stroke="#90a4ae" />
    <line x1="21" y1="8.5" x2="11" y2="13.5" stroke-width="1" stroke="#90a4ae" />
    
    <line x1="6" y1="16" x2="16" y2="21" stroke-width="1" stroke="#90a4ae" />
    <line x1="11" y1="13.5" x2="11" y2="23.5" stroke-width="1" stroke="#90a4ae" />
    
    <line x1="16" y1="21" x2="26" y2="16" stroke-width="1" stroke="#90a4ae" />
    <line x1="21" y1="13.5" x2="21" y2="23.5" stroke-width="1" stroke="#90a4ae" />
  </g>
  <g fill="#37474f">
    <circle cx="16" cy="6" r="1.5" />
    <circle cx="26" cy="11" r="1.5" />
    <circle cx="6" cy="11" r="1.5" />
    <circle cx="16" cy="16" r="1.5" />
    <circle cx="6" cy="21" r="1.5" />
    <circle cx="26" cy="21" r="1.5" />
    <circle cx="16" cy="26" r="1.5" />
  </g>
</svg>
