<svg xmlns="http://www.w3.org/2000/svg" viewBox="0 0 32 32">
  <polygon points="16,4 28,10 16,16 4,10" fill="#b095f9" stroke="#6b43cd" stroke-width="1.5" stroke-linejoin="round" />
  <polygon points="4,10 16,16 16,28 4,22" fill="#8a5cf5" stroke="#6b43cd" stroke-width="1.5" stroke-linejoin="round" />
  <polygon points="16,16 28,10 28,22 16,28" fill="#6b43cd" stroke="#482794" stroke-width="1.5" stroke-linejoin="round" />
  <line x1="10" y1="7" x2="22" y2="13" stroke="#ffffff" stroke-width="1" opacity="0.6"/>
  <line x1="22" y1="7" x2="10" y2="13" stroke="#ffffff" stroke-width="1" opacity="0.6"/>
  <line x1="4" y1="16" x2="16" y2="22" stroke="#ffffff" stroke-width="1" opacity="0.6"/>
  <line x1="10" y1="13" x2="10" y2="25" stroke="#ffffff" stroke-width="1" opacity="0.6"/>
  <line x1="16" y1="22" x2="28" y2="16" stroke="#ffffff" stroke-width="1" opacity="0.6"/>
  <line x1="22" y1="13" x2="22" y2="25" stroke="#ffffff" stroke-width="1" opacity="0.6"/>
  <circle cx="16" cy="4" r="1.5" fill="#ffeb3b" />
  <circle cx="28" cy="10" r="1.5" fill="#ffeb3b" />
  <circle cx="16" cy="16" r="1.5" fill="#ffeb3b" />
  <circle cx="4" cy="10" r="1.5" fill="#ffeb3b" />
  <circle cx="4" cy="22" r="1.5" fill="#ffeb3b" />
  <circle cx="16" cy="28" r="1.5" fill="#ffeb3b" />
  <circle cx="28" cy="22" r="1.5" fill="#ffeb3b" />
  <circle cx="16" cy="10" r="1" fill="#ffffff" />
  <circle cx="10" cy="19" r="1" fill="#ffffff" />
  <circle cx="22" cy="19" r="1" fill="#ffffff" />
</svg>
